o My_mesh
v -2.168262 -58.855682 0.000000
v 45.155296 -58.081936 0.000000
v 88.446442 -42.666767 0.000000
v -27.371073 -27.873489 0.000000
v 101.469391 1.995478 0.000000
v -37.467201 15.864918 0.000000
v 75.688644 39.534027 0.000000
v 75.652328 39.556183 0.000000
v -15.346702 52.619118 0.000000
v 31.578703 54.956856 0.000000
vn 0.000000 0.000000 1.000000
f 10/10/1 9/9/1 8/8/1
f 9/9/1 4/4/1 8/8/1
f 8/8/1 4/4/1 3/3/1
f 7/7/1 8/8/1 3/3/1
f 7/7/1 3/3/1 5/5/1
f 9/9/1 6/6/1 4/4/1
f 4/4/1 1/1/1 3/3/1
f 3/3/1 1/1/1 2/2/1
