o My_mesh
v 44.772251 -47.987118 0.000000
v 41.271919 -47.961472 0.000000
v 37.737968 -47.721031 0.000000
v 48.288368 -47.682770 0.000000
v 34.221573 -47.371666 0.000000
v 30.759247 -47.001877 0.000000
v 51.740643 -46.947025 0.000000
v 27.224136 -46.660725 0.000000
v 23.681465 -46.400925 0.000000
v 20.175306 -46.237194 0.000000
v 16.673002 -45.958389 0.000000
v 55.101269 -45.719837 0.000000
v 13.128908 -45.504238 0.000000
v 9.629772 -44.897221 0.000000
v 6.235957 -44.163441 0.000000
v 58.206104 -44.079422 0.000000
v 2.825067 -43.283443 0.000000
v -0.603719 -42.252335 0.000000
v 61.092880 -42.091743 0.000000
v -3.889936 -41.120163 0.000000
v -7.222674 -39.817574 0.000000
v 63.815979 -39.804199 0.000000
v -10.469468 -38.383575 0.000000
v 66.330902 -37.343700 0.000000
v -13.574968 -36.838627 0.000000
v -16.679190 -35.094891 0.000000
v 68.700050 -34.733433 0.000000
v -19.663883 -33.187885 0.000000
v 70.995964 -31.948431 0.000000
v -22.519653 -31.090679 0.000000
v 73.112190 -29.172979 0.000000
v -25.184681 -28.803976 0.000000
v 75.142624 -26.334974 0.000000
v -27.635206 -26.283203 0.000000
v -29.829557 -23.453852 0.000000
v 77.164024 -23.351379 0.000000
v -31.577045 -20.416313 0.000000
v 79.100838 -20.355293 0.000000
v 80.934135 -17.392984 0.000000
v -32.806618 -17.096544 0.000000
v 82.710777 -14.343814 0.000000
v -33.361061 -13.656571 0.000000
v 84.386978 -11.231626 0.000000
v -33.191299 -10.151529 0.000000
v 85.925598 -8.060107 0.000000
v -32.628502 -6.620599 0.000000
v 87.293747 -4.792897 0.000000
v -32.133381 -3.105372 0.000000
v 88.403717 -1.476221 0.000000
v -31.629059 0.369562 0.000000
v 89.174522 1.945370 0.000000
v -30.986267 3.826357 0.000000
v 89.449219 5.454068 0.000000
v -30.047895 7.238332 0.000000
v 89.026817 8.961670 0.000000
v -28.702553 10.495803 0.000000
v 87.791512 12.253072 0.000000
v -26.929529 13.536056 0.000000
v 85.846031 15.192034 0.000000
v -24.774372 16.364923 0.000000
v 83.458351 17.780493 0.000000
v -22.393263 18.929388 0.000000
v 80.860214 20.156355 0.000000
v -19.809748 21.333988 0.000000
v 78.181625 22.499292 0.000000
v -17.093716 23.597765 0.000000
v 75.609497 24.882620 0.000000
v -14.282190 25.750559 0.000000
v 73.190125 27.464993 0.000000
v -11.463956 27.770823 0.000000
v -8.485919 29.795195 0.000000
v 71.063538 30.274372 0.000000
v -5.535855 31.715136 0.000000
v 69.288719 33.379330 0.000000
v 69.272087 33.413792 0.000000
v -2.592356 33.564369 0.000000
v 0.411828 35.396763 0.000000
v 67.784714 36.573837 0.000000
v 3.480755 37.221790 0.000000
v 6.565263 39.016544 0.000000
v 66.307846 39.745815 0.000000
v 9.564193 40.729553 0.000000
v 12.700055 42.490345 0.000000
v 64.754768 42.913784 0.000000
v 15.785850 44.172592 0.000000
v 18.907278 45.810799 0.000000
v 63.040035 45.996494 0.000000
v 22.025888 47.375381 0.000000
v 61.033623 48.912617 0.000000
v 25.271856 48.916260 0.000000
v 28.537756 50.362221 0.000000
v 58.635956 51.467770 0.000000
v 31.794472 51.681812 0.000000
v 35.097393 52.871609 0.000000
v 55.740631 53.480820 0.000000
v 38.452484 53.894600 0.000000
v 41.937061 54.711006 0.000000
v 52.421207 54.755856 0.000000
v 45.375977 55.202614 0.000000
v 48.969986 55.273907 0.000000
vn 0.000000 0.000000 1.000000
f 100/100/1 99/99/1 98/98/1
f 99/99/1 73/73/1 98/98/1
f 98/98/1 73/73/1 78/78/1
f 89/89/1 95/95/1 78/78/1
f 89/89/1 78/78/1 84/84/1
f 95/95/1 98/98/1 78/78/1
f 95/95/1 89/89/1 92/92/1
f 89/89/1 84/84/1 87/87/1
f 84/84/1 78/78/1 81/81/1
f 99/99/1 86/86/1 73/73/1
f 99/99/1 93/93/1 86/86/1
f 86/86/1 80/80/1 73/73/1
f 99/99/1 96/96/1 93/93/1
f 93/93/1 90/90/1 86/86/1
f 86/86/1 83/83/1 80/80/1
f 80/80/1 77/77/1 73/73/1
f 99/99/1 97/97/1 96/96/1
f 96/96/1 94/94/1 93/93/1
f 93/93/1 91/91/1 90/90/1
f 90/90/1 88/88/1 86/86/1
f 86/86/1 85/85/1 83/83/1
f 83/83/1 82/82/1 80/80/1
f 80/80/1 79/79/1 77/77/1
f 77/77/1 76/76/1 73/73/1
f 78/78/1 73/73/1 75/75/1
f 75/75/1 73/73/1 74/74/1
f 74/74/1 73/73/1 72/72/1
f 73/73/1 46/46/1 72/72/1
f 70/70/1 62/62/1 46/46/1
f 62/62/1 54/54/1 46/46/1
f 73/73/1 70/70/1 46/46/1
f 70/70/1 66/66/1 62/62/1
f 62/62/1 58/58/1 54/54/1
f 54/54/1 50/50/1 46/46/1
f 73/73/1 71/71/1 70/70/1
f 70/70/1 68/68/1 66/66/1
f 66/66/1 64/64/1 62/62/1
f 62/62/1 60/60/1 58/58/1
f 58/58/1 56/56/1 54/54/1
f 54/54/1 52/52/1 50/50/1
f 50/50/1 48/48/1 46/46/1
f 72/72/1 46/46/1 69/69/1
f 69/69/1 46/46/1 67/67/1
f 67/67/1 46/46/1 65/65/1
f 65/65/1 46/46/1 7/7/1
f 47/47/1 63/63/1 7/7/1
f 47/47/1 7/7/1 31/31/1
f 63/63/1 47/47/1 55/55/1
f 47/47/1 31/31/1 39/39/1
f 31/31/1 7/7/1 22/22/1
f 63/63/1 55/55/1 59/59/1
f 55/55/1 47/47/1 51/51/1
f 47/47/1 39/39/1 43/43/1
f 39/39/1 31/31/1 36/36/1
f 31/31/1 22/22/1 27/27/1
f 22/22/1 7/7/1 16/16/1
f 63/63/1 65/65/1 7/7/1
f 63/63/1 59/59/1 61/61/1
f 59/59/1 55/55/1 57/57/1
f 55/55/1 51/51/1 53/53/1
f 51/51/1 47/47/1 49/49/1
f 47/47/1 43/43/1 45/45/1
f 43/43/1 39/39/1 41/41/1
f 39/39/1 36/36/1 38/38/1
f 36/36/1 31/31/1 33/33/1
f 31/31/1 27/27/1 29/29/1
f 27/27/1 22/22/1 24/24/1
f 22/22/1 16/16/1 19/19/1
f 16/16/1 7/7/1 12/12/1
f 46/46/1 9/9/1 7/7/1
f 34/34/1 20/20/1 9/9/1
f 42/42/1 34/34/1 9/9/1
f 34/34/1 26/26/1 20/20/1
f 20/20/1 14/14/1 9/9/1
f 46/46/1 42/42/1 9/9/1
f 42/42/1 37/37/1 34/34/1
f 34/34/1 30/30/1 26/26/1
f 26/26/1 23/23/1 20/20/1
f 20/20/1 17/17/1 14/14/1
f 14/14/1 11/11/1 9/9/1
f 46/46/1 44/44/1 42/42/1
f 42/42/1 40/40/1 37/37/1
f 37/37/1 35/35/1 34/34/1
f 34/34/1 32/32/1 30/30/1
f 30/30/1 28/28/1 26/26/1
f 26/26/1 25/25/1 23/23/1
f 23/23/1 21/21/1 20/20/1
f 20/20/1 18/18/1 17/17/1
f 17/17/1 15/15/1 14/14/1
f 14/14/1 13/13/1 11/11/1
f 11/11/1 10/10/1 9/9/1
f 9/9/1 8/8/1 7/7/1
f 8/8/1 6/6/1 7/7/1
f 7/7/1 6/6/1 4/4/1
f 6/6/1 5/5/1 4/4/1
f 5/5/1 3/3/1 4/4/1
f 4/4/1 3/3/1 1/1/1
f 3/3/1 2/2/1 1/1/1
