o My_mesh
v 16.604216 -51.046825 0.000000
v 12.296885 -50.999348 0.000000
v 20.922213 -50.968548 0.000000
v 25.129534 -50.801022 0.000000
v 8.009526 -50.746407 0.000000
v 29.480541 -50.507980 0.000000
v 3.817420 -50.122753 0.000000
v 33.683556 -50.070431 0.000000
v 37.969757 -49.403866 0.000000
v -0.070288 -48.497620 0.000000
v 42.120625 -48.437958 0.000000
v 46.183842 -46.977131 0.000000
v 49.881485 -44.763115 0.000000
v -0.472941 -44.622391 0.000000
v 52.726200 -41.588684 0.000000
v 2.226054 -41.287930 0.000000
v 5.458736 -38.414768 0.000000
v 54.395596 -37.675404 0.000000
v 8.814494 -35.773479 0.000000
v 55.215645 -33.461502 0.000000
v 12.220145 -33.235619 0.000000
v 15.705086 -30.692451 0.000000
v 55.696754 -29.255217 0.000000
v 19.224945 -28.117891 0.000000
v 22.657711 -25.551285 0.000000
v 56.225555 -24.950802 0.000000
v 26.028749 -22.924444 0.000000
v 56.999676 -20.785028 0.000000
v 29.286757 -20.217566 0.000000
v 32.468128 -17.306293 0.000000
v 58.166637 -16.670746 0.000000
v 0.254403 -16.052376 0.000000
v 4.515692 -16.046757 0.000000
v -4.042288 -15.285627 0.000000
v 8.678625 -15.070147 0.000000
v 35.374107 -14.220555 0.000000
v -8.096658 -14.004433 0.000000
v 12.433098 -13.088463 0.000000
v 59.766003 -12.717243 0.000000
v -12.102562 -12.308125 0.000000
v 37.931763 -10.718972 0.000000
v -15.857786 -10.393878 0.000000
v 15.691926 -10.264181 0.000000
v 61.822342 -8.909465 0.000000
v -19.537561 -8.258628 0.000000
v 18.417450 -6.981050 0.000000
v 39.575535 -6.831348 0.000000
v 64.231659 -5.380682 0.000000
v -24.062492 -5.336420 0.000000
v 20.839079 -3.450546 0.000000
v -27.150908 -3.182798 0.000000
v 39.416702 -2.565403 0.000000
v 66.965233 -2.075942 0.000000
v -30.792267 -0.424021 0.000000
v 23.219152 0.131055 0.000000
v 37.117321 0.952587 0.000000
v 37.061966 1.007050 0.000000
v 69.869804 1.103700 0.000000
v -33.692158 2.024058 0.000000
v 25.978487 3.405869 0.000000
v 33.774330 3.705467 0.000000
v 72.459305 4.507487 0.000000
v -36.781036 5.046772 0.000000
v 29.810633 5.075431 0.000000
v -39.300953 8.159425 0.000000
v 74.565269 8.257627 0.000000
v -41.165802 11.648238 0.000000
v 75.916374 12.365338 0.000000
v -41.759132 15.389299 0.000000
v 76.172356 16.550776 0.000000
v -40.177303 19.539309 0.000000
v 75.161423 20.710957 0.000000
v -36.943020 22.631937 0.000000
v 72.998154 24.434929 0.000000
v -33.474125 24.713566 0.000000
v -29.400951 26.530920 0.000000
v 70.101158 27.519489 0.000000
v -25.652096 27.879009 0.000000
v -21.578922 29.124865 0.000000
v 66.649269 30.128550 0.000000
v -17.240910 30.283188 0.000000
v -12.838340 31.336561 0.000000
v -9.088379 32.165905 0.000000
v 62.897884 32.270531 0.000000
v -5.305593 32.958679 0.000000
v -0.621975 33.901783 0.000000
v 59.035732 33.994347 0.000000
v 3.080027 34.632748 0.000000
v 55.023571 35.411709 0.000000
v 7.786136 35.564320 0.000000
v 11.418736 36.300785 0.000000
v 50.901592 36.556374 0.000000
v 16.863060 37.438248 0.000000
v 46.703358 37.450867 0.000000
v 21.085918 38.115044 0.000000
v 42.382847 38.120205 0.000000
v 38.195808 38.545868 0.000000
v 25.286119 38.550354 0.000000
v 33.837704 38.767067 0.000000
v 29.640348 38.769531 0.000000
vn 0.000000 0.000000 1.000000
f 100/100/1 98/98/1 99/99/1
f 99/99/1 98/98/1 89/89/1
f 98/98/1 91/91/1 89/89/1
f 97/97/1 89/89/1 94/94/1
f 97/97/1 99/99/1 89/89/1
f 97/97/1 94/94/1 96/96/1
f 94/94/1 89/89/1 92/92/1
f 98/98/1 95/95/1 91/91/1
f 95/95/1 93/93/1 91/91/1
f 91/91/1 90/90/1 89/89/1
f 90/90/1 88/88/1 89/89/1
f 89/89/1 88/88/1 62/62/1
f 84/84/1 62/62/1 72/72/1
f 84/84/1 89/89/1 62/62/1
f 84/84/1 72/72/1 77/77/1
f 72/72/1 62/62/1 68/68/1
f 89/89/1 84/84/1 87/87/1
f 84/84/1 77/77/1 80/80/1
f 77/77/1 72/72/1 74/74/1
f 72/72/1 68/68/1 70/70/1
f 68/68/1 62/62/1 66/66/1
f 88/88/1 64/64/1 62/62/1
f 83/83/1 78/78/1 64/64/1
f 78/78/1 71/71/1 64/64/1
f 86/86/1 83/83/1 64/64/1
f 83/83/1 81/81/1 78/78/1
f 78/78/1 75/75/1 71/71/1
f 71/71/1 67/67/1 64/64/1
f 88/88/1 86/86/1 64/64/1
f 86/86/1 85/85/1 83/83/1
f 83/83/1 82/82/1 81/81/1
f 81/81/1 79/79/1 78/78/1
f 78/78/1 76/76/1 75/75/1
f 75/75/1 73/73/1 71/71/1
f 71/71/1 69/69/1 67/67/1
f 67/67/1 65/65/1 64/64/1
f 64/64/1 61/61/1 62/62/1
f 62/62/1 61/61/1 53/53/1
f 62/62/1 53/53/1 58/58/1
f 61/61/1 57/57/1 53/53/1
f 57/57/1 56/56/1 53/53/1
f 56/56/1 52/52/1 53/53/1
f 53/53/1 52/52/1 48/48/1
f 52/52/1 47/47/1 48/48/1
f 48/48/1 47/47/1 44/44/1
f 47/47/1 41/41/1 44/44/1
f 44/44/1 41/41/1 39/39/1
f 41/41/1 36/36/1 39/39/1
f 39/39/1 36/36/1 31/31/1
f 36/36/1 30/30/1 31/31/1
f 31/31/1 30/30/1 28/28/1
f 30/30/1 29/29/1 28/28/1
f 29/29/1 27/27/1 28/28/1
f 28/28/1 27/27/1 26/26/1
f 27/27/1 25/25/1 26/26/1
f 26/26/1 25/25/1 23/23/1
f 25/25/1 24/24/1 23/23/1
f 24/24/1 22/22/1 23/23/1
f 23/23/1 22/22/1 20/20/1
f 22/22/1 21/21/1 20/20/1
f 21/21/1 2/2/1 20/20/1
f 21/21/1 14/14/1 2/2/1
f 21/21/1 17/17/1 14/14/1
f 14/14/1 7/7/1 2/2/1
f 21/21/1 19/19/1 17/17/1
f 17/17/1 16/16/1 14/14/1
f 14/14/1 10/10/1 7/7/1
f 7/7/1 5/5/1 2/2/1
f 20/20/1 2/2/1 3/3/1
f 15/15/1 3/3/1 9/9/1
f 15/15/1 20/20/1 3/3/1
f 15/15/1 9/9/1 12/12/1
f 9/9/1 3/3/1 6/6/1
f 20/20/1 15/15/1 18/18/1
f 15/15/1 12/12/1 13/13/1
f 12/12/1 9/9/1 11/11/1
f 9/9/1 6/6/1 8/8/1
f 6/6/1 3/3/1 4/4/1
f 3/3/1 2/2/1 1/1/1
f 65/65/1 63/63/1 64/64/1
f 64/64/1 63/63/1 60/60/1
f 63/63/1 34/34/1 60/60/1
f 59/59/1 45/45/1 34/34/1
f 59/59/1 51/51/1 45/45/1
f 45/45/1 40/40/1 34/34/1
f 63/63/1 59/59/1 34/34/1
f 59/59/1 54/54/1 51/51/1
f 51/51/1 49/49/1 45/45/1
f 45/45/1 42/42/1 40/40/1
f 40/40/1 37/37/1 34/34/1
f 60/60/1 34/34/1 55/55/1
f 55/55/1 34/34/1 33/33/1
f 46/46/1 55/55/1 33/33/1
f 46/46/1 33/33/1 38/38/1
f 55/55/1 46/46/1 50/50/1
f 46/46/1 38/38/1 43/43/1
f 38/38/1 33/33/1 35/35/1
f 34/34/1 32/32/1 33/33/1
