o My_mesh
v 5.507932 -39.825577 0.000000
v 7.652318 -38.678341 0.000000
v 9.880537 -38.112804 0.000000
v 4.984374 -38.011776 0.000000
v 12.216178 -37.681469 0.000000
v 14.468822 -37.335567 0.000000
v 16.777845 -37.018669 0.000000
v 19.086983 -36.722488 0.000000
v 21.413919 -36.434238 0.000000
v 23.689505 -36.155205 0.000000
v 26.026873 -35.866123 0.000000
v 5.262585 -35.644569 0.000000
v 28.394421 -35.566280 0.000000
v 30.728397 -35.259972 0.000000
v 33.024063 -34.945023 0.000000
v 35.304138 -34.615768 0.000000
v 37.597214 -34.265118 0.000000
v 39.895374 -33.890953 0.000000
v 42.190075 -33.491360 0.000000
v 5.655425 -33.357044 0.000000
v 44.497574 -33.059731 0.000000
v 46.791836 -32.596935 0.000000
v 49.109100 -32.090797 0.000000
v 51.400528 -31.546700 0.000000
v 6.118979 -31.021206 0.000000
v 53.657181 -30.962332 0.000000
v 55.890804 -30.329296 0.000000
v 58.063366 -29.653059 0.000000
v 60.290974 -28.886932 0.000000
v 6.613286 -28.729498 0.000000
v 62.453373 -28.059319 0.000000
v 64.578926 -27.148075 0.000000
v 7.114983 -26.528116 0.000000
v 66.663139 -26.137991 0.000000
v 68.748268 -24.979921 0.000000
v 7.660454 -24.231441 0.000000
v 70.741669 -23.689470 0.000000
v 72.548920 -22.303961 0.000000
v 8.224019 -21.936827 0.000000
v 74.254364 -20.718071 0.000000
v 8.800656 -19.653261 0.000000
v 75.756126 -18.960737 0.000000
v 9.390505 -17.372330 0.000000
v 77.059982 -16.926517 0.000000
v 9.985097 -15.120687 0.000000
v 77.973709 -14.867910 0.000000
v 10.566264 -12.960240 0.000000
v 78.583359 -12.555951 0.000000
v 11.188074 -10.688198 0.000000
v 78.811249 -10.298682 0.000000
v 78.812813 -10.239819 0.000000
v 11.831096 -8.377789 0.000000
v 78.751236 -7.957196 0.000000
v 12.450418 -6.187439 0.000000
v 78.445839 -5.643579 0.000000
v 13.107791 -3.897877 0.000000
v 77.907143 -3.371407 0.000000
v 13.755216 -1.677094 0.000000
v 77.158920 -1.171903 0.000000
v 14.417430 0.560334 0.000000
v 76.202850 0.992371 0.000000
v 15.093966 2.811018 0.000000
v 75.099731 3.031801 0.000000
v 15.758274 4.986438 0.000000
v 73.840546 5.007819 0.000000
v 72.442245 6.916937 0.000000
v 16.450682 7.216874 0.000000
v 70.982025 8.687132 0.000000
v 17.182615 9.532349 0.000000
v 69.372780 10.443553 0.000000
v 17.894661 11.741274 0.000000
v 67.716850 12.087406 0.000000
v 65.992058 13.659581 0.000000
v 18.616907 13.935099 0.000000
v 64.189194 15.177980 0.000000
v 19.350595 16.111538 0.000000
v 62.400463 16.578554 0.000000
v 60.474907 17.985296 0.000000
v 20.124310 18.343792 0.000000
v 58.599937 19.267168 0.000000
v 20.906202 20.525221 0.000000
v 56.601727 20.548561 0.000000
v 54.579823 21.764809 0.000000
v 21.721037 22.705240 0.000000
v 52.550507 22.911051 0.000000
v 50.497963 23.999691 0.000000
v 22.588198 24.896963 0.000000
v 48.453987 25.016790 0.000000
v 46.308617 26.014980 0.000000
v 44.211464 26.923216 0.000000
v 23.489553 26.991310 0.000000
v 42.019432 27.800797 0.000000
v 39.781059 28.618763 0.000000
v 24.545120 29.088552 0.000000
v 37.565678 29.345219 0.000000
v 35.335899 29.983238 0.000000
v 33.050835 30.522236 0.000000
v 26.095541 30.713377 0.000000
v 30.740641 30.913914 0.000000
v 28.397947 31.071924 0.000000
vn 0.000000 0.000000 1.000000
f 100/100/1 98/98/1 99/99/1
f 99/99/1 98/98/1 68/68/1
f 98/98/1 71/71/1 68/68/1
f 93/93/1 68/68/1 82/82/1
f 93/93/1 99/99/1 68/68/1
f 93/93/1 82/82/1 88/88/1
f 82/82/1 68/68/1 75/75/1
f 99/99/1 93/93/1 96/96/1
f 93/93/1 88/88/1 90/90/1
f 88/88/1 82/82/1 85/85/1
f 82/82/1 75/75/1 78/78/1
f 75/75/1 68/68/1 72/72/1
f 99/99/1 96/96/1 97/97/1
f 96/96/1 93/93/1 95/95/1
f 93/93/1 90/90/1 92/92/1
f 90/90/1 88/88/1 89/89/1
f 88/88/1 85/85/1 86/86/1
f 85/85/1 82/82/1 83/83/1
f 82/82/1 78/78/1 80/80/1
f 78/78/1 75/75/1 77/77/1
f 75/75/1 72/72/1 73/73/1
f 72/72/1 68/68/1 70/70/1
f 94/94/1 81/81/1 71/71/1
f 94/94/1 87/87/1 81/81/1
f 81/81/1 76/76/1 71/71/1
f 98/98/1 94/94/1 71/71/1
f 94/94/1 91/91/1 87/87/1
f 87/87/1 84/84/1 81/81/1
f 81/81/1 79/79/1 76/76/1
f 76/76/1 74/74/1 71/71/1
f 71/71/1 39/39/1 68/68/1
f 64/64/1 56/56/1 39/39/1
f 56/56/1 47/47/1 39/39/1
f 69/69/1 64/64/1 39/39/1
f 64/64/1 60/60/1 56/56/1
f 56/56/1 52/52/1 47/47/1
f 47/47/1 43/43/1 39/39/1
f 71/71/1 69/69/1 39/39/1
f 69/69/1 67/67/1 64/64/1
f 64/64/1 62/62/1 60/60/1
f 60/60/1 58/58/1 56/56/1
f 56/56/1 54/54/1 52/52/1
f 52/52/1 49/49/1 47/47/1
f 47/47/1 45/45/1 43/43/1
f 43/43/1 41/41/1 39/39/1
f 68/68/1 39/39/1 9/9/1
f 55/55/1 9/9/1 28/28/1
f 55/55/1 28/28/1 40/40/1
f 28/28/1 9/9/1 18/18/1
f 55/55/1 63/63/1 9/9/1
f 55/55/1 40/40/1 48/48/1
f 40/40/1 28/28/1 34/34/1
f 28/28/1 18/18/1 23/23/1
f 18/18/1 9/9/1 14/14/1
f 63/63/1 66/66/1 9/9/1
f 63/63/1 55/55/1 59/59/1
f 55/55/1 48/48/1 51/51/1
f 48/48/1 40/40/1 44/44/1
f 40/40/1 34/34/1 37/37/1
f 34/34/1 28/28/1 31/31/1
f 28/28/1 23/23/1 26/26/1
f 23/23/1 18/18/1 21/21/1
f 18/18/1 14/14/1 16/16/1
f 14/14/1 9/9/1 11/11/1
f 66/66/1 68/68/1 9/9/1
f 66/66/1 63/63/1 65/65/1
f 63/63/1 59/59/1 61/61/1
f 59/59/1 55/55/1 57/57/1
f 55/55/1 51/51/1 53/53/1
f 51/51/1 48/48/1 50/50/1
f 48/48/1 44/44/1 46/46/1
f 44/44/1 40/40/1 42/42/1
f 40/40/1 37/37/1 38/38/1
f 37/37/1 34/34/1 35/35/1
f 34/34/1 31/31/1 32/32/1
f 31/31/1 28/28/1 29/29/1
f 28/28/1 26/26/1 27/27/1
f 26/26/1 23/23/1 24/24/1
f 23/23/1 21/21/1 22/22/1
f 21/21/1 18/18/1 19/19/1
f 18/18/1 16/16/1 17/17/1
f 16/16/1 14/14/1 15/15/1
f 14/14/1 11/11/1 13/13/1
f 11/11/1 9/9/1 10/10/1
f 39/39/1 4/4/1 9/9/1
f 36/36/1 30/30/1 4/4/1
f 30/30/1 20/20/1 4/4/1
f 39/39/1 36/36/1 4/4/1
f 36/36/1 33/33/1 30/30/1
f 30/30/1 25/25/1 20/20/1
f 20/20/1 12/12/1 4/4/1
f 9/9/1 4/4/1 8/8/1
f 8/8/1 4/4/1 7/7/1
f 7/7/1 4/4/1 6/6/1
f 6/6/1 4/4/1 5/5/1
f 5/5/1 4/4/1 3/3/1
f 4/4/1 2/2/1 3/3/1
f 4/4/1 1/1/1 2/2/1
